<svg aria-hidden="true" style="position:absolute;width:0;height:0" xmlns="http://www.w3.org/2000/svg" overflow="hidden"><defs><symbol id="icon-logo-header" viewBox="0 0 91 32"><path fill="var(--color1, #111518)" d="M13.608 4.836v12.942H9.947v-5.047H4.955v5.047H1.294V4.836h3.661v4.863h4.992V4.836h3.661zm13.398 7.95c0 .025-.018.314-.055.869h-7.285c.148.518.431.918.851 1.202.431.271.968.407 1.609.407.481 0 .894-.068 1.239-.203a3.63 3.63 0 001.072-.666l1.849 1.923c-.974 1.085-2.397 1.627-4.271 1.627-1.171 0-2.2-.222-3.088-.666s-1.578-1.06-2.071-1.849c-.481-.789-.721-1.683-.721-2.681 0-.986.234-1.867.703-2.644.481-.789 1.14-1.405 1.978-1.849s1.781-.666 2.829-.666c.998 0 1.904.21 2.718.629a4.58 4.58 0 011.923 1.793c.481.777.721 1.701.721 2.773zm-5.343-2.7c-.542 0-.998.154-1.368.462-.357.308-.586.727-.684 1.257h4.105c-.099-.53-.333-.949-.703-1.257-.357-.308-.807-.462-1.35-.462zm7.702-6.027h3.513v13.719h-3.513V4.059zm6.536 0h3.513v13.719h-3.513V4.059z"/><path fill="var(--color2, #ff6b09)" d="M4.614 29.724H2.765l-.353.853h-.944l1.775-3.982h.91l1.781 3.982h-.967l-.353-.853zm-.29-.699L3.693 27.5l-.631 1.525h1.263zm7.302.802v1.576h-.853v-.825h-2.81v.825H7.11l.006-1.576h.159c.239-.008.408-.182.506-.523s.159-.829.182-1.462l.045-1.246h3.061v3.231h.557zm-2.85-1.9a8.56 8.56 0 01-.119 1.195c-.061.319-.154.554-.279.705h1.781v-2.48H8.794l-.017.58zm6.378 2.719c-.406 0-.774-.087-1.104-.262a2.03 2.03 0 01-.774-.734c-.186-.315-.279-.669-.279-1.064s.093-.747.279-1.058a1.98 1.98 0 01.774-.734 2.3 2.3 0 011.109-.267c.345 0 .656.061.933.182.281.121.516.296.705.523l-.592.546a1.271 1.271 0 00-1.001-.466c-.246 0-.466.055-.66.165a1.155 1.155 0 00-.455.449c-.106.193-.159.413-.159.66s.053.466.159.66c.11.193.262.345.455.455.193.106.413.159.66.159.398 0 .732-.157 1.001-.472l.592.546c-.19.231-.425.408-.705.529s-.594.182-.939.182zm4.81-1.672h-.637v1.604h-.916v-3.982h.916v1.61h.66l1.047-1.61h.973l-1.303 1.923 1.343 2.059H21l-1.035-1.604zm3.538-2.378h.916v2.594l1.9-2.594h.865v3.982h-.91V27.99l-1.9 2.588h-.87v-3.982zm5.696 0h.916v2.594l1.9-2.594h.865v3.982h-.91V27.99l-1.9 2.588h-.87v-3.982zm1.838-.256c-.728 0-1.096-.29-1.104-.87h.631c.008.277.165.415.472.415.152 0 .267-.034.347-.102.08-.072.121-.176.125-.313h.631c-.004.284-.097.501-.279.649s-.457.222-.825.222z"/><path fill="var(--color1, #111518)" d="M40.226 29.724h-1.849l-.353.853h-.944l1.775-3.982h.91l1.781 3.982h-.967l-.353-.853zm-.29-.699l-.631-1.525-.631 1.525h1.263zm6.814-2.429v3.982h-.922v-1.633h-1.809v1.633h-.922v-3.982h.922v1.57h1.809v-1.57h.922zm4.827.75h-1.894l.006 3.231h-.916v-3.982h2.81l-.006.751zm4.647-.75v3.982h-.91v-3.231h-1.365l-.028.831a8.564 8.564 0 01-.137 1.377c-.072.349-.193.618-.364.808-.167.186-.402.279-.705.279-.125 0-.277-.021-.455-.063l.057-.779a.562.562 0 00.165.023c.22 0 .374-.129.461-.387.087-.262.142-.669.165-1.223l.057-1.616h3.061zm2.018 0h.916v2.594l1.9-2.594h.865v3.982h-.91V27.99l-1.9 2.588h-.87v-3.982zm5.696 0h.916v2.594l1.9-2.594h.865v3.982h-.91V27.99l-1.9 2.588h-.87v-3.982zm1.838-.256c-.728 0-1.096-.29-1.104-.87h.631c.008.277.165.415.472.415.152 0 .267-.034.347-.102.08-.072.121-.176.125-.313h.631c-.004.284-.097.501-.279.649s-.457.222-.825.222zm5.742 4.306c-.406 0-.774-.087-1.104-.262a2.03 2.03 0 01-.774-.734c-.186-.315-.279-.669-.279-1.064s.093-.747.279-1.058a1.98 1.98 0 01.774-.734 2.3 2.3 0 011.109-.267c.345 0 .656.061.933.182.28.121.516.296.705.523l-.592.546a1.271 1.271 0 00-1.001-.466 1.31 1.31 0 00-.66.165 1.155 1.155 0 00-.455.449c-.106.193-.159.413-.159.66s.053.466.159.66c.11.193.262.345.455.455.193.106.413.159.66.159.398 0 .732-.157 1.001-.472l.592.546c-.19.231-.425.408-.705.529s-.594.182-.939.182zm4.811-1.672h-.637v1.604h-.916v-3.982h.916v1.61h.66l1.047-1.61h.973l-1.303 1.923 1.343 2.059h-1.047l-1.035-1.604zm3.537-2.378h.916v2.594l1.9-2.594h.865v3.982h-.91V27.99l-1.9 2.588h-.87v-3.982zm5.696 0h.916v2.594l1.9-2.594h.865v3.982h-.91V27.99l-1.9 2.588h-.87v-3.982zm1.838-.256c-.728 0-1.096-.29-1.104-.87h.631c.008.277.165.415.472.415.151 0 .267-.034.347-.102.08-.072.122-.176.125-.313h.631c-.004.284-.097.501-.279.649s-.457.222-.825.222zM74.263 14.949v2.829H63.872V4.836h10.15v2.829h-6.527v2.182h5.75v2.736h-5.75v2.367h6.767zM89.348 4.836v12.942h-3.014l-5.713-6.896v6.896h-3.587V4.836h3.014l5.713 6.896V4.836h3.587z"/><path fill="var(--color2, #ff6b09)" d="M58.695 11.062c-.189-.423-.45-.84-.831-1.322-.962-1.209-1.255-3.905-1.258-3.931a.326.326 0 00-.225-.275.33.33 0 00-.345.094c-1.147 1.283-.665 3.265-.404 4.057.072.217.15.472.205.731.424 2.091-.394 3.038-.587 3.229-.186.052-.313.026-.43-.1-.404-.443-.538-1.894-.349-3.785a3.89 3.89 0 00-.026-1.054c-.399-2.324-1.86-3.815-2.233-4.338C51.189 2.855 51.084.337 51.081.315a.324.324 0 00-.508-.255c-1.708 1.16-1.561 3.956-1.323 5.518.055.362.163.731.349 1.196.662 1.665-.13 3.814-.137 3.834s-.013.036-.016.055c-.101.53-.27.847-.46.847a.205.205 0 01-.062-.01c-.231-.048-.352-.294-.355-.507-.013-2.757-2.78-3.685-2.81-3.694a.323.323 0 00-.345.097.32.32 0 00-.046.356c.033.068.137.365.065 1.416a12.072 12.072 0 01-.512 2.773 13.547 13.547 0 00-.548 4.276c.506 5.505 8.423 6.469 13.122 3.368a4.742 4.742 0 001.245-1.154c1.734-2.392.714-5.64-.046-7.366zm-12.043 5.259a.322.322 0 01-.306.339h-.02a.324.324 0 01-.326-.304c-.029-.472-.023-.966.013-1.503a.326.326 0 01.652.045c-.036.511-.042.976-.013 1.422zm.159-2.864a.323.323 0 01-.323.284c-.013 0-.026 0-.042-.003a.327.327 0 01-.284-.359l.156-1.248a.328.328 0 01.649.081l-.156 1.244zM56.489 4.422a.322.322 0 01-.272-.368c.02-.131.138-.804.458-1.142.123-.13.329-.137.461-.015s.138.327.015.457c-.135.143-.251.553-.289.798a.327.327 0 01-.372.27zM44.608 6.032c-.062-.24-.217-.637-.366-.766-.135-.118-.149-.322-.03-.456s.324-.148.46-.03c.351.305.535.963.568 1.092a.322.322 0 01-.235.393.327.327 0 01-.397-.232z"/></symbol><symbol id="icon-logo-mobile" viewBox="0 0 88 32"><path fill="var(--color3, #fff)" d="M12.345 4.848v12.975h-3.67v-5.06H3.67v5.06H0V4.848h3.67v4.875h5.005V4.848h3.67zM25.777 12.818c0 .025-.019.315-.056.871h-7.303c.148.519.433.921.853 1.205.433.272.97.408 1.613.408.482 0 .896-.068 1.242-.204a3.646 3.646 0 001.075-.667l1.854 1.928c-.976 1.087-2.403 1.631-4.282 1.631-1.174 0-2.206-.222-3.096-.667s-1.582-1.063-2.076-1.854c-.482-.791-.723-1.687-.723-2.688 0-.989.235-1.872.704-2.651.482-.791 1.143-1.409 1.983-1.854s1.786-.667 2.836-.667c1.001 0 1.909.21 2.725.63a4.586 4.586 0 011.928 1.798c.482.778.723 1.705.723 2.78zm-5.357-2.706c-.544 0-1.001.154-1.372.463-.358.309-.587.729-.686 1.26h4.115c-.099-.531-.334-.951-.704-1.26-.358-.309-.809-.463-1.353-.463zM28.142 4.069h3.522v13.753h-3.522V4.069zM34.694 4.069h3.522v13.753h-3.522V4.069zM3.328 29.8H1.474l-.354.855H.173l1.779-3.992h.913l1.785 3.992h-.97l-.354-.855zm-.291-.702l-.633-1.528-.633 1.528h1.266zM10.358 29.902v1.58h-.855v-.827H6.686v.827H5.83l.006-1.58h.16c.24-.008.409-.183.508-.525s.16-.831.183-1.466l.046-1.249h3.068v3.239h.559zm-2.857-1.905a8.441 8.441 0 01-.12 1.198c-.061.319-.154.555-.279.707h1.785v-2.487H7.518l-.017.582zM13.895 30.724c-.407 0-.776-.087-1.106-.262a2.041 2.041 0 01-.776-.736c-.186-.316-.28-.671-.28-1.066s.093-.749.28-1.061c.19-.316.449-.561.776-.736a2.3 2.3 0 011.112-.268c.346 0 .658.061.935.183.281.122.517.297.707.525l-.593.548a1.274 1.274 0 00-1.004-.468 1.32 1.32 0 00-.662.165 1.15 1.15 0 00-.456.451c-.106.194-.16.414-.16.662s.053.468.16.662c.11.194.262.346.456.456.194.106.414.16.662.16.399 0 .734-.158 1.004-.473l.593.548c-.19.232-.426.409-.707.53s-.595.183-.941.183zM18.717 29.047h-.639v1.608h-.918v-3.992h.918v1.614h.662l1.049-1.614h.975l-1.306 1.928 1.346 2.065h-1.049l-1.038-1.608zM22.264 26.663h.918v2.601l1.905-2.601h.867v3.992h-.913V28.06l-1.905 2.595h-.873v-3.992zM27.975 26.663h.918v2.601l1.905-2.601h.867v3.992h-.913V28.06l-1.905 2.595h-.873v-3.992zm1.842-.257c-.73 0-1.099-.291-1.106-.873h.633c.008.278.165.416.473.416.152 0 .268-.034.348-.103.08-.072.122-.177.126-.314h.633c-.004.285-.097.502-.279.65s-.458.222-.827.222zM39.031 29.8h-1.854l-.354.855h-.947l1.779-3.992h.912l1.785 3.992h-.969l-.354-.855zm-.291-.702l-.633-1.528-.633 1.528h1.266zM45.571 26.663v3.992h-.924v-1.637h-1.814v1.637h-.924v-3.992h.924v1.574h1.814v-1.574h.924zM50.41 27.416h-1.899l.006 3.239h-.918v-3.992h2.817l-.006.753zM55.069 26.663v3.992h-.913v-3.239h-1.369l-.028.833a8.581 8.581 0 01-.137 1.38c-.072.35-.194.62-.365.81-.167.186-.403.279-.707.279-.125 0-.278-.021-.456-.063l.057-.781a.567.567 0 00.165.023c.221 0 .374-.129.462-.388.087-.262.143-.671.165-1.226l.057-1.62h3.068zM57.092 26.663h.918v2.601l1.905-2.601h.867v3.992h-.913V28.06l-1.905 2.595h-.873v-3.992zM62.803 26.663h.918v2.601l1.905-2.601h.867v3.992h-.913V28.06l-1.905 2.595h-.873v-3.992zm1.842-.257c-.73 0-1.099-.291-1.107-.873h.633c.007.278.165.416.473.416.152 0 .268-.034.348-.103.08-.072.122-.177.125-.314h.633c-.004.285-.097.502-.279.65s-.458.222-.827.222zM70.401 30.724c-.407 0-.776-.087-1.106-.262a2.034 2.034 0 01-.776-.736c-.186-.316-.279-.671-.279-1.066s.093-.749.279-1.061c.19-.316.449-.561.776-.736a2.297 2.297 0 011.112-.268c.346 0 .658.061.935.183.281.122.517.297.707.525l-.593.548a1.276 1.276 0 00-1.004-.468 1.32 1.32 0 00-.662.165 1.15 1.15 0 00-.456.451c-.106.194-.16.414-.16.662s.053.468.16.662c.11.194.262.346.456.456.194.106.414.16.662.16.399 0 .734-.158 1.004-.473l.593.548c-.19.232-.426.409-.707.53s-.595.183-.941.183zM75.224 29.047h-.639v1.608h-.918v-3.992h.918v1.614h.662l1.049-1.614h.975l-1.306 1.928 1.346 2.065h-1.049l-1.038-1.608zM78.771 26.663h.918v2.601l1.905-2.601h.867v3.992h-.913V28.06l-1.905 2.595h-.873v-3.992zM84.481 26.663h.918v2.601l1.905-2.601h.867v3.992h-.913V28.06l-1.905 2.595h-.873v-3.992zm1.843-.257c-.73 0-1.099-.291-1.106-.873h.633c.008.278.165.416.473.416.152 0 .268-.034.348-.103.08-.072.122-.177.125-.314h.633c-.004.285-.097.502-.279.65s-.458.222-.827.222zM73.153 14.987v2.836H62.736V4.848h10.176v2.836h-6.543v2.187h5.765v2.743h-5.765v2.373h6.784zM88.276 4.848v12.975h-3.021l-5.728-6.914v6.914h-3.596V4.848h3.021l5.728 6.914V4.848h3.596z"/><path fill="var(--color2, #ff6b09)" d="M57.546 11.09c-.189-.424-.451-.842-.833-1.325-.964-1.212-1.258-3.915-1.261-3.94a.325.325 0 00-.225-.275.331.331 0 00-.346.094c-1.15 1.286-.667 3.273-.405 4.067.072.217.15.473.206.732.425 2.097-.395 3.046-.588 3.237-.186.052-.314.026-.431-.101-.405-.444-.539-1.899-.35-3.795a3.906 3.906 0 00-.026-1.056c-.4-2.33-1.865-3.825-2.238-4.349C50.023 2.862 49.918.338 49.915.315a.326.326 0 00-.51-.256c-1.712 1.163-1.565 3.966-1.327 5.532.056.363.163.732.35 1.199.663 1.669-.131 3.824-.137 3.843s-.013.036-.016.055c-.101.531-.271.849-.461.849a.205.205 0 01-.062-.01c-.232-.049-.353-.295-.356-.509-.013-2.764-2.787-3.694-2.817-3.704a.325.325 0 00-.392.453c.033.068.137.366.065 1.419a12.078 12.078 0 01-.513 2.78 13.567 13.567 0 00-.549 4.287c.507 5.519 8.444 6.486 13.155 3.377.516-.34.938-.729 1.248-1.157 1.738-2.398.716-5.655-.046-7.385zm-12.074 5.272a.323.323 0 01-.307.34h-.02a.326.326 0 01-.327-.305c-.029-.473-.023-.969.013-1.507a.33.33 0 01.35-.301c.18.013.317.168.304.347-.036.512-.042.979-.013 1.426zm.16-2.871a.324.324 0 01-.323.285c-.013 0-.026 0-.042-.003a.327.327 0 01-.284-.36l.157-1.251a.33.33 0 01.366-.282c.18.023.307.185.284.363l-.157 1.248zM55.335 4.433a.325.325 0 01-.273-.369c.02-.132.138-.806.459-1.145.123-.131.33-.138.462-.015s.138.327.015.458c-.136.144-.251.554-.29.8a.327.327 0 01-.373.271zM43.423 6.048c-.063-.241-.218-.638-.367-.768-.136-.118-.149-.323-.03-.457s.325-.149.461-.03c.352.306.536.966.569 1.094a.324.324 0 01-.235.394.328.328 0 01-.398-.233z"/></symbol><symbol id="icon-logo-tablet" viewBox="0 0 91 32"><path fill="var(--color3, #fff)" d="M13.608 4.836v12.942H9.947v-5.047H4.955v5.047H1.294V4.836h3.661v4.863h4.992V4.836h3.661zm13.398 7.95c0 .025-.018.314-.055.869h-7.285c.148.518.431.918.851 1.202.431.271.968.407 1.609.407.481 0 .894-.068 1.239-.203a3.63 3.63 0 001.072-.666l1.849 1.923c-.974 1.085-2.397 1.627-4.271 1.627-1.171 0-2.2-.222-3.088-.666s-1.578-1.06-2.071-1.849c-.481-.789-.721-1.683-.721-2.681 0-.986.234-1.867.703-2.644.481-.789 1.14-1.405 1.978-1.849s1.781-.666 2.829-.666c.998 0 1.904.21 2.718.629a4.58 4.58 0 011.923 1.793c.481.777.721 1.701.721 2.773zm-5.343-2.7c-.542 0-.998.154-1.368.462-.357.308-.586.727-.684 1.257h4.105c-.099-.53-.333-.949-.703-1.257-.357-.308-.807-.462-1.35-.462zm7.702-6.027h3.513v13.719h-3.513V4.059zm6.536 0h3.513v13.719h-3.513V4.059z"/><path fill="var(--color2, #ff6b09)" d="M4.614 29.724H2.765l-.353.853h-.944l1.775-3.982h.91l1.781 3.982h-.967l-.353-.853zm-.29-.699L3.693 27.5l-.631 1.525h1.263zm7.302.802v1.576h-.853v-.825h-2.81v.825H7.11l.006-1.576h.159c.239-.008.408-.182.506-.523s.159-.829.182-1.462l.045-1.246h3.061v3.231h.557zm-2.85-1.9a8.56 8.56 0 01-.119 1.195c-.061.319-.154.554-.279.705h1.781v-2.48H8.794l-.017.58zm6.378 2.719c-.406 0-.774-.087-1.104-.262a2.03 2.03 0 01-.774-.734c-.186-.315-.279-.669-.279-1.064s.093-.747.279-1.058a1.98 1.98 0 01.774-.734 2.3 2.3 0 011.109-.267c.345 0 .656.061.933.182.281.121.516.296.705.523l-.592.546a1.271 1.271 0 00-1.001-.466c-.246 0-.466.055-.66.165a1.155 1.155 0 00-.455.449c-.106.193-.159.413-.159.66s.053.466.159.66c.11.193.262.345.455.455.193.106.413.159.66.159.398 0 .732-.157 1.001-.472l.592.546c-.19.231-.425.408-.705.529s-.594.182-.939.182zm4.81-1.672h-.637v1.604h-.916v-3.982h.916v1.61h.66l1.047-1.61h.973l-1.303 1.923 1.343 2.059H21l-1.035-1.604zm3.538-2.378h.916v2.594l1.9-2.594h.865v3.982h-.91V27.99l-1.9 2.588h-.87v-3.982zm5.696 0h.916v2.594l1.9-2.594h.865v3.982h-.91V27.99l-1.9 2.588h-.87v-3.982zm1.838-.256c-.728 0-1.096-.29-1.104-.87h.631c.008.277.165.415.472.415.152 0 .267-.034.347-.102.08-.072.121-.176.125-.313h.631c-.004.284-.097.501-.279.649s-.457.222-.825.222z"/><path fill="var(--color3, #fff)" d="M40.226 29.724h-1.849l-.353.853h-.944l1.775-3.982h.91l1.781 3.982h-.967l-.353-.853zm-.29-.699l-.631-1.525-.631 1.525h1.263zm6.814-2.429v3.982h-.922v-1.633h-1.809v1.633h-.922v-3.982h.922v1.57h1.809v-1.57h.922zm4.827.75h-1.894l.006 3.231h-.916v-3.982h2.81l-.006.751zm4.647-.75v3.982h-.91v-3.231h-1.365l-.028.831a8.564 8.564 0 01-.137 1.377c-.072.349-.193.618-.364.808-.167.186-.402.279-.705.279-.125 0-.277-.021-.455-.063l.057-.779a.562.562 0 00.165.023c.22 0 .374-.129.461-.387.087-.262.142-.669.165-1.223l.057-1.616h3.061zm2.018 0h.916v2.594l1.9-2.594h.865v3.982h-.91V27.99l-1.9 2.588h-.87v-3.982zm5.696 0h.916v2.594l1.9-2.594h.865v3.982h-.91V27.99l-1.9 2.588h-.87v-3.982zm1.838-.256c-.728 0-1.096-.29-1.104-.87h.631c.008.277.165.415.472.415.152 0 .267-.034.347-.102.08-.072.121-.176.125-.313h.631c-.004.284-.097.501-.279.649s-.457.222-.825.222zm5.742 4.306c-.406 0-.774-.087-1.104-.262a2.03 2.03 0 01-.774-.734c-.186-.315-.279-.669-.279-1.064s.093-.747.279-1.058a1.98 1.98 0 01.774-.734 2.3 2.3 0 011.109-.267c.345 0 .656.061.933.182.28.121.516.296.705.523l-.592.546a1.271 1.271 0 00-1.001-.466 1.31 1.31 0 00-.66.165 1.155 1.155 0 00-.455.449c-.106.193-.159.413-.159.66s.053.466.159.66c.11.193.262.345.455.455.193.106.413.159.66.159.398 0 .732-.157 1.001-.472l.592.546c-.19.231-.425.408-.705.529s-.594.182-.939.182zm4.811-1.672h-.637v1.604h-.916v-3.982h.916v1.61h.66l1.047-1.61h.973l-1.303 1.923 1.343 2.059h-1.047l-1.035-1.604zm3.537-2.378h.916v2.594l1.9-2.594h.865v3.982h-.91V27.99l-1.9 2.588h-.87v-3.982zm5.696 0h.916v2.594l1.9-2.594h.865v3.982h-.91V27.99l-1.9 2.588h-.87v-3.982zm1.838-.256c-.728 0-1.096-.29-1.104-.87h.631c.008.277.165.415.472.415.151 0 .267-.034.347-.102.08-.072.122-.176.125-.313h.631c-.004.284-.097.501-.279.649s-.457.222-.825.222zM74.263 14.949v2.829H63.872V4.836h10.15v2.829h-6.527v2.182h5.75v2.736h-5.75v2.367h6.767zM89.348 4.836v12.942h-3.014l-5.713-6.896v6.896h-3.587V4.836h3.014l5.713 6.896V4.836h3.587z"/><path fill="var(--color2, #ff6b09)" d="M58.695 11.062c-.189-.423-.45-.84-.831-1.322-.962-1.209-1.255-3.905-1.258-3.931a.326.326 0 00-.225-.275.33.33 0 00-.345.094c-1.147 1.283-.665 3.265-.404 4.057.072.217.15.472.205.731.424 2.091-.394 3.038-.587 3.229-.186.052-.313.026-.43-.1-.404-.443-.538-1.894-.349-3.785a3.89 3.89 0 00-.026-1.054c-.399-2.324-1.86-3.815-2.233-4.338C51.189 2.855 51.084.337 51.081.315a.324.324 0 00-.508-.255c-1.708 1.16-1.561 3.956-1.323 5.518.055.362.163.731.349 1.196.662 1.665-.13 3.814-.137 3.834s-.013.036-.016.055c-.101.53-.27.847-.46.847a.205.205 0 01-.062-.01c-.231-.048-.352-.294-.355-.507-.013-2.757-2.78-3.685-2.81-3.694a.323.323 0 00-.345.097.32.32 0 00-.046.356c.033.068.137.365.065 1.416a12.072 12.072 0 01-.512 2.773 13.547 13.547 0 00-.548 4.276c.506 5.505 8.423 6.469 13.122 3.368a4.742 4.742 0 001.245-1.154c1.734-2.392.714-5.64-.046-7.366zm-12.043 5.259a.322.322 0 01-.306.339h-.02a.324.324 0 01-.326-.304c-.029-.472-.023-.966.013-1.503a.326.326 0 01.652.045c-.036.511-.042.976-.013 1.422zm.159-2.864a.323.323 0 01-.323.284c-.013 0-.026 0-.042-.003a.327.327 0 01-.284-.359l.156-1.248a.328.328 0 01.649.081l-.156 1.244zM56.489 4.422a.322.322 0 01-.272-.368c.02-.131.138-.804.458-1.142.123-.13.329-.137.461-.015s.138.327.015.457c-.135.143-.251.553-.289.798a.327.327 0 01-.372.27zM44.608 6.032c-.062-.24-.217-.637-.366-.766-.135-.118-.149-.322-.03-.456s.324-.148.46-.03c.351.305.535.963.568 1.092a.322.322 0 01-.235.393.327.327 0 01-.397-.232z"/></symbol><symbol id="icon-logo" viewBox="0 0 88 32"><path fill="var(--color1, #111518)" d="M12.345 4.848v12.975h-3.67v-5.06H3.67v5.06H0V4.848h3.67v4.875h5.005V4.848h3.67zM25.777 12.818c0 .025-.019.315-.056.871h-7.303c.148.519.433.921.853 1.205.433.272.97.408 1.613.408.482 0 .896-.068 1.242-.204a3.646 3.646 0 001.075-.667l1.854 1.928c-.976 1.087-2.403 1.631-4.282 1.631-1.174 0-2.206-.222-3.096-.667s-1.582-1.063-2.076-1.854c-.482-.791-.723-1.687-.723-2.688 0-.989.235-1.872.704-2.651.482-.791 1.143-1.409 1.983-1.854s1.786-.667 2.836-.667c1.001 0 1.909.21 2.725.63a4.586 4.586 0 011.928 1.798c.482.778.723 1.705.723 2.78zm-5.357-2.706c-.544 0-1.001.154-1.372.463-.358.309-.587.729-.686 1.26h4.115c-.099-.531-.334-.951-.704-1.26-.358-.309-.809-.463-1.353-.463zM28.142 4.069h3.522v13.753h-3.522V4.069zM34.694 4.069h3.522v13.753h-3.522V4.069zM3.328 29.8H1.474l-.354.855H.173l1.779-3.992h.913l1.785 3.992h-.97l-.354-.855zm-.291-.702l-.633-1.528-.633 1.528h1.266zM10.358 29.902v1.58h-.855v-.827H6.686v.827H5.83l.006-1.58h.16c.24-.008.409-.183.508-.525s.16-.831.183-1.466l.046-1.249h3.068v3.239h.559zm-2.857-1.905a8.441 8.441 0 01-.12 1.198c-.061.319-.154.555-.279.707h1.785v-2.487H7.518l-.017.582zM13.895 30.724c-.407 0-.776-.087-1.106-.262a2.041 2.041 0 01-.776-.736c-.186-.316-.28-.671-.28-1.066s.093-.749.28-1.061c.19-.316.449-.561.776-.736a2.3 2.3 0 011.112-.268c.346 0 .658.061.935.183.281.122.517.297.707.525l-.593.548a1.274 1.274 0 00-1.004-.468 1.32 1.32 0 00-.662.165 1.15 1.15 0 00-.456.451c-.106.194-.16.414-.16.662s.053.468.16.662c.11.194.262.346.456.456.194.106.414.16.662.16.399 0 .734-.158 1.004-.473l.593.548c-.19.232-.426.409-.707.53s-.595.183-.941.183zM18.717 29.047h-.639v1.608h-.918v-3.992h.918v1.614h.662l1.049-1.614h.975l-1.306 1.928 1.346 2.065h-1.049l-1.038-1.608zM22.264 26.663h.918v2.601l1.905-2.601h.867v3.992h-.913V28.06l-1.905 2.595h-.873v-3.992zM27.975 26.663h.918v2.601l1.905-2.601h.867v3.992h-.913V28.06l-1.905 2.595h-.873v-3.992zm1.842-.257c-.73 0-1.099-.291-1.106-.873h.633c.008.278.165.416.473.416.152 0 .268-.034.348-.103.08-.072.122-.177.126-.314h.633c-.004.285-.097.502-.279.65s-.458.222-.827.222zM39.031 29.8h-1.854l-.354.855h-.947l1.779-3.992h.912l1.785 3.992h-.969l-.354-.855zm-.291-.702l-.633-1.528-.633 1.528h1.266zM45.571 26.663v3.992h-.924v-1.637h-1.814v1.637h-.924v-3.992h.924v1.574h1.814v-1.574h.924zM50.41 27.416h-1.899l.006 3.239h-.918v-3.992h2.817l-.006.753zM55.069 26.663v3.992h-.913v-3.239h-1.369l-.028.833a8.581 8.581 0 01-.137 1.38c-.072.35-.194.62-.365.81-.167.186-.403.279-.707.279-.125 0-.278-.021-.456-.063l.057-.781a.567.567 0 00.165.023c.221 0 .374-.129.462-.388.087-.262.143-.671.165-1.226l.057-1.62h3.068zM57.092 26.663h.918v2.601l1.905-2.601h.867v3.992h-.913V28.06l-1.905 2.595h-.873v-3.992zM62.803 26.663h.918v2.601l1.905-2.601h.867v3.992h-.913V28.06l-1.905 2.595h-.873v-3.992zm1.842-.257c-.73 0-1.099-.291-1.107-.873h.633c.007.278.165.416.473.416.152 0 .268-.034.348-.103.08-.072.122-.177.125-.314h.633c-.004.285-.097.502-.279.65s-.458.222-.827.222zM70.401 30.724c-.407 0-.776-.087-1.106-.262a2.034 2.034 0 01-.776-.736c-.186-.316-.279-.671-.279-1.066s.093-.749.279-1.061c.19-.316.449-.561.776-.736a2.297 2.297 0 011.112-.268c.346 0 .658.061.935.183.281.122.517.297.707.525l-.593.548a1.276 1.276 0 00-1.004-.468 1.32 1.32 0 00-.662.165 1.15 1.15 0 00-.456.451c-.106.194-.16.414-.16.662s.053.468.16.662c.11.194.262.346.456.456.194.106.414.16.662.16.399 0 .734-.158 1.004-.473l.593.548c-.19.232-.426.409-.707.53s-.595.183-.941.183zM75.224 29.047h-.639v1.608h-.918v-3.992h.918v1.614h.662l1.049-1.614h.975l-1.306 1.928 1.346 2.065h-1.049l-1.038-1.608zM78.771 26.663h.918v2.601l1.905-2.601h.867v3.992h-.913V28.06l-1.905 2.595h-.873v-3.992zM84.481 26.663h.918v2.601l1.905-2.601h.867v3.992h-.913V28.06l-1.905 2.595h-.873v-3.992zm1.843-.257c-.73 0-1.099-.291-1.106-.873h.633c.008.278.165.416.473.416.152 0 .268-.034.348-.103.08-.072.122-.177.125-.314h.633c-.004.285-.097.502-.279.65s-.458.222-.827.222zM73.153 14.987v2.836H62.736V4.848h10.176v2.836h-6.543v2.187h5.765v2.743h-5.765v2.373h6.784zM88.276 4.848v12.975h-3.021l-5.728-6.914v6.914h-3.596V4.848h3.021l5.728 6.914V4.848h3.596z"/><path fill="var(--color2, #ff6b09)" d="M57.546 11.09c-.189-.424-.451-.842-.833-1.325-.964-1.212-1.258-3.915-1.261-3.94a.325.325 0 00-.225-.275.331.331 0 00-.346.094c-1.15 1.286-.667 3.273-.405 4.067.072.217.15.473.206.732.425 2.097-.395 3.046-.588 3.237-.186.052-.314.026-.431-.101-.405-.444-.539-1.899-.35-3.795a3.906 3.906 0 00-.026-1.056c-.4-2.33-1.865-3.825-2.238-4.349C50.023 2.862 49.918.338 49.915.315a.326.326 0 00-.51-.256c-1.712 1.163-1.565 3.966-1.327 5.532.056.363.163.732.35 1.199.663 1.669-.131 3.824-.137 3.843s-.013.036-.016.055c-.101.531-.271.849-.461.849a.205.205 0 01-.062-.01c-.232-.049-.353-.295-.356-.509-.013-2.764-2.787-3.694-2.817-3.704a.325.325 0 00-.392.453c.033.068.137.366.065 1.419a12.078 12.078 0 01-.513 2.78 13.567 13.567 0 00-.549 4.287c.507 5.519 8.444 6.486 13.155 3.377.516-.34.938-.729 1.248-1.157 1.738-2.398.716-5.655-.046-7.385zm-12.074 5.272a.323.323 0 01-.307.34h-.02a.326.326 0 01-.327-.305c-.029-.473-.023-.969.013-1.507a.33.33 0 01.35-.301c.18.013.317.168.304.347-.036.512-.042.979-.013 1.426zm.16-2.871a.324.324 0 01-.323.285c-.013 0-.026 0-.042-.003a.327.327 0 01-.284-.36l.157-1.251a.33.33 0 01.366-.282c.18.023.307.185.284.363l-.157 1.248zM55.335 4.433a.325.325 0 01-.273-.369c.02-.132.138-.806.459-1.145.123-.131.33-.138.462-.015s.138.327.015.458c-.136.144-.251.554-.29.8a.327.327 0 01-.373.271zM43.423 6.048c-.063-.241-.218-.638-.367-.768-.136-.118-.149-.323-.03-.457s.325-.149.461-.03c.352.306.536.966.569 1.094a.324.324 0 01-.235.394.328.328 0 01-.398-.233z"/></symbol></defs></svg>