<svg aria-hidden="true" style="position: absolute; width: 0; height: 0; overflow: hidden;" version="1.1" xmlns="http://www.w3.org/2000/svg" xmlns:xlink="http://www.w3.org/1999/xlink">
<defs>
    <symbol id="icon-menu" viewBox="0 0 48 32">
        <path d="M0 5.334v-5.334h48v5.334h-48zM0 18.666h48v-5.332h-48v5.332zM0 32h48v-5.334h-48v5.334z"></path>
    </symbol>
    <symbol id="icon-close" viewBox="0 0 32 32">
        <path d="M31.439 3.166l-3.166-3.166-12.554 12.552-12.552-12.552-3.166 3.166 12.552 12.552-12.552 12.554 3.166 3.166 12.552-12.554 12.554 12.554 3.166-3.166-12.554-12.554 12.554-12.552z"></path>
    </symbol>
    <symbol id="icon-study-program" viewBox="0 0 31 32">
        <path d="M30.151 4.961l-0.001-0.003c-0.007-0.017-0.015-0.032-0.025-0.046l0.001 0.001-0.003-0.003c-0.010-0.016-0.021-0.029-0.033-0.042l-4.807-4.806c-0.012-0.012-0.025-0.023-0.039-0.032l-0.001-0.001c-0.003-0.002-0.007-0.003-0.009-0.006-0.010-0.006-0.022-0.013-0.034-0.019l-0.002-0.001-0.011-0.004c-0.029-0.012-0.063-0.019-0.098-0.020h-21.177c-0.157 0-0.283 0.127-0.283 0.284 0 0 0 0 0 0v0 29.311c0 0.019 0.001 0.037 0.005 0.055l0.007 0.023 0.010 0.030c0.003 0.009 0.009 0.017 0.013 0.025 0.004 0.007 0.007 0.016 0.013 0.023 0.010 0.015 0.021 0.028 0.033 0.040l2.167 2.167c0.051 0.051 0.122 0.083 0.201 0.083s0.149-0.032 0.201-0.083v0l1.965-1.964 1.964 1.964c0.051 0.052 0.122 0.084 0.201 0.084s0.15-0.032 0.201-0.084l1.963-1.963 1.965 1.963c0.051 0.051 0.122 0.083 0.201 0.083s0.149-0.032 0.201-0.083v0l1.963-1.963 1.964 1.963c0.051 0.051 0.122 0.083 0.201 0.083s0.149-0.032 0.201-0.083v0l1.965-1.964 1.964 1.964c0.051 0.052 0.122 0.084 0.201 0.084s0.149-0.032 0.201-0.084l1.964-1.963 1.965 1.963c0.051 0.051 0.122 0.083 0.201 0.083s0.149-0.032 0.201-0.083v0l2.165-2.165 0.011-0.013c0.008-0.009 0.017-0.019 0.024-0.029 0.007-0.009 0.011-0.020 0.016-0.030 0.004-0.007 0.007-0.012 0.009-0.019 0.007-0.013 0.009-0.027 0.013-0.040l0.005-0.013c0.003-0.017 0.005-0.036 0.005-0.056 0-0 0-0.001 0-0.001v0-24.503c-0.001-0.039-0.009-0.077-0.023-0.111l0.001 0.002zM25.367 0.949l3.836 3.835h-3.836v-3.835zM29.604 29.456l-1.88 1.88-1.965-1.964c-0.051-0.051-0.122-0.083-0.201-0.083s-0.149 0.032-0.201 0.083v0l-1.963 1.964-1.964-1.964c-0.051-0.051-0.122-0.083-0.201-0.083s-0.149 0.032-0.201 0.083v0l-1.965 1.964-1.963-1.964c-0.051-0.052-0.122-0.084-0.201-0.084s-0.15 0.032-0.201 0.084v0l-1.963 1.964-1.965-1.964c-0.052-0.051-0.123-0.083-0.201-0.083s-0.149 0.032-0.201 0.083v0l-1.963 1.964-1.964-1.964c-0.052-0.051-0.123-0.083-0.201-0.083s-0.149 0.032-0.201 0.083v0l-1.964 1.964-1.88-1.88v-28.909h20.603v4.522c0 0.157 0.127 0.284 0.284 0.284h4.521v24.103z"></path>
        <path d="M6.313 3.234h9.303c0.157 0 0.284-0.127 0.284-0.284s-0.127-0.284-0.284-0.284h-9.303c-0.157 0-0.284 0.127-0.284 0.284s0.127 0.284 0.284 0.284v0zM6.313 4.991h14.92c0.157 0 0.284-0.127 0.284-0.284s-0.127-0.284-0.284-0.284h-14.92c-0.157 0-0.284 0.127-0.284 0.284s0.127 0.284 0.284 0.284v0zM6.029 6.568v9.199c0 0.157 0.127 0.284 0.285 0.284h21.172c0.157 0 0.284-0.127 0.284-0.284v0-9.199c0-0.157-0.127-0.284-0.284-0.284v0h-21.173c-0 0-0 0-0.001 0-0.157 0-0.284 0.127-0.284 0.284 0 0 0 0 0 0v0zM12.308 6.852h14.893v2.445h-14.893v-2.445zM12.308 9.865h14.893v2.444h-14.893v-2.444zM12.308 12.877h14.893v2.605h-14.893v-2.605zM6.598 6.852h5.142v2.445h-5.142v-2.445zM6.598 9.865h5.142v2.444h-5.142v-2.444zM6.598 12.877h5.142v2.605h-5.142v-2.605zM27.486 17.329h-21.173c-0 0-0 0-0.001 0-0.157 0-0.284 0.127-0.284 0.284 0 0 0 0 0 0v0 9.198c0 0.157 0.127 0.284 0.284 0.284s0.284-0.127 0.284-0.284v-2.889h5.143v2.889c0 0.157 0.127 0.284 0.284 0.284s0.284-0.127 0.284-0.284v0-2.889h14.893v2.889c0 0.157 0.127 0.284 0.284 0.284s0.284-0.127 0.284-0.284v0-9.198c0-0 0-0.001 0-0.001 0-0.156-0.127-0.283-0.283-0.283-0 0-0 0-0.001 0h0zM11.74 23.353h-5.142v-2.443h5.142v2.443zM11.74 20.341h-5.142v-2.444h5.142v2.444zM27.201 23.353h-14.893v-2.443h14.893v2.443zM27.201 20.341h-14.893v-2.444h14.893v2.444zM2.281-0.021c-0.157 0-0.284 0.127-0.284 0.284v29.311c0 0.157 0.127 0.284 0.284 0.284s0.284-0.127 0.284-0.284v0-29.311c0-0.157-0.127-0.284-0.284-0.284v0zM0.718-0.021c-0.157 0-0.284 0.127-0.284 0.284v29.311c0 0.157 0.127 0.284 0.284 0.284s0.284-0.127 0.284-0.284v0-29.311c0-0.157-0.127-0.284-0.284-0.284v0z"></path>
    </symbol>
    <symbol id="icon-mobile-learning" viewBox="0 0 33 32">
        <path d="M30.175-0.128h-15.746c-1.026 0.001-1.858 0.833-1.859 1.859v6.519l-11.699 4.909c-0.139 0.059-0.235 0.194-0.235 0.352 0 0.139 0.074 0.26 0.185 0.326l0.002 0.001 1.491 0.893v9.516c-0.769 0.181-1.333 0.861-1.334 1.673v0.917c0 0.211 0.17 0.381 0.381 0.381h2.671c0.211 0 0.381-0.171 0.381-0.381v0-0.917c0-0.816-0.573-1.498-1.337-1.673v-9.060l1.179 0.706c-0.036 0.272-0.004-0.474-0.016 4.43 0 1.612 4.129 2.476 8.33 2.525v7.425c0 0.383 0.118 0.74 0.319 1.036 0.338 0.497 0.901 0.819 1.539 0.82h15.746c1.025-0.001 1.857-0.832 1.857-1.857v-0c0 0.051-0.002-1.573 0-28.539 0-1.012-0.836-1.859-1.856-1.859zM3.651 25.918v0.537h-1.908v-0.537c0-0.528 0.427-0.957 0.952-0.957 0.528 0 0.957 0.43 0.957 0.957zM30.175 31.364h-15.746c-0.378 0-0.712-0.191-0.909-0.481-0.118-0.171-0.188-0.383-0.188-0.611 0-0 0-0 0-0.001v0-2.574h17.935v2.575c0 0.596-0.497 1.092-1.092 1.092zM31.267 26.935h-17.936v-4.086c2.051-0.023 8.336-0.475 8.336-2.527-0.003-3.080 0.005-4.33-0.010-4.436l3.421-2.049c0.111-0.068 0.184-0.189 0.184-0.326 0-0.157-0.095-0.292-0.23-0.35l-0.002-0.001-11.697-4.91v-3.182h17.935v21.868zM12.951 17.792c-2.113 0-6.182 0.273-7.949 1.427 0.011-3.53-0.123-3.3 0.312-3.6 1.098-0.808 4.238-1.373 7.637-1.373 1.482 0 7.954 0.407 7.954 1.777v3.196c-1.784-1.165-5.832-1.428-7.954-1.428zM13.332 1.731c0.001-0.605 0.491-1.095 1.096-1.095 0 0 0 0 0 0h15.745c0.605 0 1.093 0.498 1.093 1.095v2.574h-17.934v-2.574zM12.951 8.915l11.090 4.655-2.748 1.644c-1.46-1.449-6.293-1.729-8.342-1.729-2.051 0-6.884 0.281-8.342 1.729l-2.749-1.644 11.091-4.655zM5.002 20.321c0-0.616 2.73-1.768 7.949-1.768 5.222 0 7.954 1.151 7.954 1.767s-2.732 1.768-7.954 1.768c-5.219 0-7.949-1.151-7.949-1.768z"></path>
        <path d="M22.301 28.271c-0.694 0-1.26 0.565-1.26 1.26s0.565 1.26 1.26 1.26 1.26-0.565 1.26-1.26c0-0.694-0.565-1.26-1.26-1.26zM22.301 30.030c-0.264-0.014-0.473-0.232-0.473-0.498s0.209-0.484 0.472-0.498l0.001-0c0.275 0 0.498 0.223 0.498 0.498s-0.223 0.498-0.498 0.498v0zM23.755 2.090h-2.907v0.762h2.907v-0.762z"></path>
    </symbol>
    <symbol id="icon-open-book" viewBox="0 0 44 32">
        <path d="M19.6 4.608h-13.64v1.021h13.64v-1.021zM19.6 8.416h-11.597v1.021h11.597v-1.021zM19.6 12.224h-13.64v1.021h13.64v-1.021zM19.6 16.032h-11.597v1.021h11.597v-1.021zM19.6 19.84h-13.64v1.021h13.64v-1.021zM19.6 23.648h-11.597v1.021h11.597v-1.021zM38.323 4.608h-13.64v1.021h13.64v-1.021zM36.281 8.416h-11.597v1.021h11.597v-1.021zM38.323 12.224h-13.64v1.021h13.64v-1.021zM36.281 16.032h-11.597v1.021h11.597v-1.021zM38.323 19.84h-13.64v1.021h13.64v-1.021zM36.281 23.648h-11.597v1.021h11.597v-1.021z"></path>
        <path d="M43.248 3.445h-1.872v-2.812c0-0.282-0.229-0.511-0.511-0.511v0h-15.265c-0.005-0-0.011-0-0.017-0-1.469 0-2.75 0.802-3.431 1.991l-0.010 0.019c-0.691-1.209-1.972-2.011-3.441-2.011-0.006 0-0.013 0-0.019 0h-15.263c-0.282 0-0.511 0.229-0.511 0.511v0 2.812h-1.873c-0.282 0-0.511 0.229-0.511 0.511v0 27.411c0 0.282 0.229 0.511 0.511 0.511h42.213c0.282-0 0.51-0.229 0.51-0.511 0 0 0 0 0 0v0-27.411c0-0.282-0.229-0.511-0.511-0.511v0zM25.601 1.144h14.753v27.349h-15.842c-0.703 0-1.405 0.296-1.859 0.68v-25.088c0-0.003 0-0.006 0-0.009 0-1.619 1.313-2.932 2.932-2.932 0.005 0 0.010 0 0.015 0h-0.001zM3.929 1.144h14.754c0.006-0 0.013-0 0.020-0 1.581 0 2.869 1.255 2.922 2.824l0 0.005c0.001 0.022 0.003 0.091 0.007 0.113v25.087c-0.453-0.383-1.148-0.678-1.852-0.678h-15.851v-27.35zM1.547 4.467h1.362v24.538c0 0.282 0.229 0.511 0.511 0.511h16.36c0.779 0 1.531 0.511 1.772 1.341h-20.005v-26.389zM42.738 30.856h-20.005c0.227-0.78 0.936-1.341 1.775-1.341 0.001 0 0.002 0 0.003 0h16.353c0 0 0 0 0.001 0 0.282 0 0.511-0.229 0.511-0.511v0-24.538h1.361v26.389z"></path>
    </symbol>
    <symbol id="icon-support" viewBox="0 0 33 32">
        <path d="M1.993 12.558v2.831c0 0.152 0.069 0.295 0.189 0.39 1.864 1.471 4.246 2.36 6.836 2.362h0c0.741 0 1.482-0.077 2.207-0.224 1.433 0.652 3.108 1.032 4.872 1.032 0.006 0 0.012 0 0.019 0h-0.001c1.707 0 3.351-0.349 4.89-1.032 3.091 0.625 6.385-0.046 9.043-2.138 0.116-0.092 0.189-0.232 0.189-0.39v0-2.831c0-0.415-0.207-0.794-0.575-1.027l-3.867-2.176c0.846-1.073 1.476-2.602 1.586-3.913 0.321-2.256-1.519-4.646-4.166-4.646-1.113 0-2.171 0.459-2.947 1.227-0.027 0.027-0.058 0.049-0.084 0.077-0.024 0.025-0.043 0.054-0.067 0.080-0.015 0.017-0.029 0.035-0.044 0.053-0.757-1.381-2.211-2.233-3.925-2.233-0.167 0-0.329 0.011-0.491 0.028-0.010-0.001-0.019-0.006-0.029-0.006-0.092 0-0.287 0.025-0.391 0.055-0.015 0.004-0.027 0.015-0.041 0.021-1.296 0.262-2.369 1.054-3.002 2.135l-0.011 0.021c-0.77-0.894-1.904-1.457-3.169-1.457-0.003 0-0.007 0-0.010 0h0.001c-3.908 0-5.642 4.612-2.557 8.581l-3.903 2.167c-0.347 0.219-0.553 0.599-0.553 1.014zM20.997 16.828c-0.084 0.041-0.167 0.085-0.251 0.123l-0.002 0.001c-1.349 0.635-2.929 1.006-4.596 1.006-0.011 0-0.022-0-0.033-0h0.002c-0.007 0-0.016 0-0.025 0-2.509 0-4.823-0.837-6.677-2.248l0.027 0.020v-2.87c0-0.097 0.047-0.184 0.102-0.221l4.542-2.525c0.565 0.48 1.287 0.832 2.035 0.832 0.72 0 1.499-0.357 2.052-0.843l4.487 2.52c0.083 0.053 0.131 0.139 0.131 0.237v2.87c-0.52 0.395-1.108 0.76-1.729 1.069l-0.064 0.029zM29.154 12.381c0.056 0.037 0.092 0.099 0.092 0.169 0 0.003-0 0.005-0 0.008v-0 2.587c-1.969 1.477-4.337 2.148-6.737 1.98 0.418-0.265 0.771-0.515 1.111-0.782l-0.028 0.022c0.116-0.092 0.19-0.232 0.19-0.39v-3.115c0-0.435-0.219-0.835-0.61-1.087l-2.384-1.339 0.58-0.321c0.703 0.573 1.307 0.744 1.848 0.744 0.663 0 1.36-0.325 1.878-0.759l4.060 2.284zM23.216 1.788c1.381 0 2.593 0.902 3.021 2.142-0.889-0.115-1.664-0.531-2.235-1.14l-0.002-0.002c-0.091-0.097-0.22-0.158-0.363-0.158-0.18 0-0.338 0.096-0.424 0.24l-0.001 0.002c-0.547 0.916-1.456 1.567-2.526 1.757l-0.022 0.003v-0.003c0-0.025 0.001-0.054 0.001-0.084 0-0.201-0.012-0.398-0.036-0.593l0.002 0.023-0.007-0.066c-0.034-0.24-0.076-0.446-0.13-0.647l0.009 0.038c0.563-0.902 1.609-1.513 2.713-1.513zM20.556 5.643c1.291-0.143 2.407-0.797 3.157-1.751l0.008-0.010c0.767 0.629 1.74 1.010 2.701 1.056-0.007 1.792-1.471 4.927-3.206 4.927-1.337 0-2.479-1.912-2.905-3.238 0.109-0.341 0.187-0.669 0.245-0.983zM20.657 9.373l-0.886 0.491-0.894-0.503c0.331-0.413 0.635-0.893 0.896-1.413 0.25 0.527 0.551 1.010 0.884 1.425zM19.32 6.465c-0.478 1.427-1.705 3.49-3.2 3.49-1.741 0-3.225-2.864-3.508-4.696 0.075-0.019 2.429 0.127 4.049-2.001 0.823 0.688 1.932 1.143 3.011 1.188 0.013 0.647-0.144 1.407-0.352 2.019zM16.149 0.991c2.78 0 3.309 2.393 3.353 2.443-1.017-0.113-1.908-0.58-2.561-1.274l-0.002-0.002c-0.091-0.097-0.219-0.157-0.362-0.157-0.181 0-0.339 0.097-0.426 0.242l-0.001 0.002c-0.72 1.218-2.026 2.022-3.52 2.022-0.021 0-0.042-0-0.063-0l0.003 0c0.136-1.822 1.596-3.274 3.58-3.274zM12.461 7.938c0.257 0.515 0.563 1.007 0.913 1.439l-0.875 0.487-0.907-0.51c0.343-0.439 0.635-0.929 0.869-1.415zM9.006 1.788c1.125 0 2.155 0.571 2.729 1.514-0.029 0.1-0.107 0.498-0.117 0.548-0.723-0.179-1.343-0.552-1.819-1.061l-0.002-0.002c-0.091-0.097-0.219-0.157-0.362-0.157-0.181 0-0.339 0.097-0.425 0.242l-0.001 0.002c-0.657 1.090-1.832 1.81-3.177 1.815h-0.001c0.158-1.627 1.518-2.9 3.174-2.9zM5.876 5.677c1.475-0.018 2.784-0.712 3.635-1.786l0.007-0.010c0.57 0.468 1.264 0.806 2.026 0.956l0.029 0.005c0.029 0.575 0.179 1.273 0.35 1.789-0.273 0.84-0.799 1.84-1.451 2.505-0.004 0.004-0.009 0.006-0.013 0.010-0.408 0.43-0.988 0.719-1.444 0.719-1.594 0-2.841-2.508-3.14-4.188zM2.985 12.558c0-0.075 0.033-0.139 0.067-0.162l4.116-2.284c0.247 0.206 0.304 0.229 0.353 0.265 0.485 0.323 0.929 0.483 1.534 0.483 0.645 0 1.233-0.273 1.749-0.694 0.029-0.023 0.060-0.045 0.088-0.068l0.587 0.33-2.447 1.361c-0.353 0.229-0.584 0.622-0.584 1.069 0 0.001 0 0.002 0 0.003v-0 3.115c0 0.152 0.070 0.295 0.19 0.389 0.317 0.249 0.727 0.539 1.083 0.761-2.434 0.167-4.803-0.528-6.737-1.98v-2.587z"></path>
        <path d="M31.259 20.781c-0.312-0.2-0.693-0.319-1.102-0.319-0.329 0-0.641 0.077-0.917 0.215l0.012-0.005-6.12 2.957c-0.022-1.148-0.956-2.070-2.106-2.072l-3.51 0.001c-1.73-1.504-3.941-2.425-5.952-2.473-1.983-0.047-3.762-0.060-4.592-0.064v-1.002h-6.972v11.516h6.972v-1.379c1.911 1.098 6.939 3.846 9.325 3.846 0.053 0 0.107-0.001 0.157-0.005 4.196-0.235 14.091-7.198 14.743-7.66 0.622-0.367 1.033-1.033 1.034-1.796v-0c0-0.002 0-0.004 0-0.006 0-0.736-0.385-1.382-0.965-1.747l-0.009-0.005zM5.98 28.542h-4.988v-9.533h4.988v9.533zM30.687 23.485c-0.017 0.009-0.031 0.018-0.045 0.028l0.001-0.001c-0.103 0.073-10.281 7.271-14.245 7.493-0.035 0.002-0.077 0.003-0.12 0.003h-0c-2.093 0-7.195-2.753-9.307-4.001v-6.997c0.827 0.003 2.596 0.017 4.569 0.063 1.837 0.044 3.876 0.921 5.455 2.346l0.141 0.127h3.888c0.617 0.001 1.118 0.501 1.119 1.118v0c-0 0.618-0.501 1.119-1.119 1.119h-7.142v0.991h7.142c0.682-0.002 1.287-0.329 1.669-0.834l0.004-0.005 6.984-3.373c0.138-0.070 0.301-0.112 0.474-0.112 0.214 0 0.413 0.063 0.579 0.172l-0.004-0.003c0.323 0.202 0.508 0.537 0.508 0.918-0.001 0.404-0.221 0.756-0.548 0.943l-0.005 0.003zM16.611 12.159h-0.991v0.92h0.991v-0.92zM16.611 13.992h-0.991v0.92h0.991v-0.92zM16.611 15.827h-0.991v0.919h0.991v-0.92z"></path>
    </symbol>
    <symbol id="icon-female-student" viewBox="0 0 27 32">
        <path d="M-0.105 31.754h27.355c0.136-3.12-0.088-8.296-2.006-10.759l-0.069-0.088-4.191-2.104c0.091-0.307 0.136-0.588 0.154-0.795 0.020-0.248-0.014-0.481-0.102-0.692-0.691-1.654-2.154-2.525-2.959-2.896 0.245-0.494 0.403-1.025 0.479-1.567 0.466-0.134 0.823-0.5 0.94-0.962l0.002-0.009 0.49-1.988c0.026-0.098 0.040-0.21 0.040-0.326 0-0.258-0.072-0.498-0.198-0.703l0.003 0.006c-0.082-0.133-0.182-0.245-0.297-0.339l-0.002-0.002c1.379-3.133-0.931-6.087-1.057-6.243-2.501-2.704-5.662-2.198-5.829-2.168-4.561 0.955-6.321 4.45-5.327 8.549-0.216 0.238-0.348 0.555-0.348 0.903 0 0.115 0.014 0.226 0.041 0.332l-0.002-0.009 0.492 1.99c0.119 0.478 0.483 0.837 0.935 0.967 0.145 1.010 0.566 1.902 1.183 2.621l-0.006-0.007v1.575c-6.546 3.352-2.398 1.213-7.644 3.867-0.010 0.049-2.461 2.654-2.097 10.374l0.022 0.472zM26.299 30.764h-4.502v-1.891l2.977-6.817c1.492 2.476 1.547 7.203 1.524 8.708zM20.155 17.923c-0.174 1.996-1.268 1.393-1.944 2.93-0.531-0.584-0.691-1.285-0.548-2.035 0.258-1.377-0.583-1.786-0.374-3.233l0.031-0.033v-0.005c0.018-0.020 0.184-0.218 0.232-0.28 1.781 0.776 2.639 2.22 2.604 2.655zM10.6 16.355c0.809 0.571 1.816 0.913 2.903 0.913 1.039 0 2.005-0.312 2.809-0.848l-0.019 0.012c0.114 1.137 0.558 1.365 0.401 2.203-0.025 0.131-0.045 0.289-0.054 0.449l-0 0.010-3.067 3.455-3.92-4.419 0.946-0.494v-1.281zM9.367 12.125v-5.282c0.477-0.882 1.127-1.522 1.936-1.906 2.165 1.226 4.657 3.054 6.329 4.894-0.002 2.343 0.007 2.349-0.009 2.542l-0.001 0.012c-0.131 2.128-1.88 3.892-4.124 3.892-2.181 0-3.992-1.712-4.123-3.913-0.005-0.064-0.008-0.139-0.008-0.215 0-0.008 0-0.017 0-0.025v0.001zM8.756 18.607l4.816 5.43 3.234-3.645c0.074 0.213 0.177 0.414 0.296 0.609l-3.53 4.414-5.263-6.583 0.447-0.225zM18.618 11.329v-1.53l0.368-0.422c0.020 0.775 0.104-0.139-0.368 1.952zM12.829 1.089c0.196 0.012 2.824-0.4 4.901 1.843 0.082 0.102 1.773 2.281 1.093 4.665-0.233-1.061-0.638-2.42-1.279-3.068l-0.7 0.697c0.633 0.64 1.048 2.591 1.206 3.602-2.9-3.035-6.642-4.957-6.694-4.989-0.187 0.116-1.771 0.417-2.921 2.653l-0.054 0.106v1.642l-0.146 0.001c-0.731-3.528 0.669-6.331 4.593-7.153zM8.132 9.261l0.248 1.008v1.060l-0.413-1.675c-0.061-0.249 0.124-0.344 0.165-0.394zM7.407 19.284l6.166 7.711 4.172-5.218c0.454 0.406 0.672 0.464 1.634 0.959l-0.324-1.101c-0.082-0.279 0.244-0.728 0.441-0.933 0.443-0.243 0.806-0.581 1.073-0.987l0.007-0.011 3.404 1.709-3.168 7.251v2.099h-14.477v-2.099l-3.169-7.25 4.242-2.13zM2.369 22.058l2.978 6.815v1.891h-4.502c-0.022-1.505 0.033-6.23 1.524-8.706z"></path>
    </symbol>
    <symbol id="icon-audio-book" viewBox="0 0 37 32">
        <path d="M2.381 29.453h12.23c0.618 1.262 1.893 2.115 3.367 2.115 0.005 0 0.009 0 0.014-0h0.771c0.005 0 0.010 0 0.016 0 1.474 0 2.748-0.854 3.356-2.093l0.010-0.022h12.237c1.262-0.002 2.284-1.024 2.285-2.286v-21.905c-0.002-1.262-1.024-2.284-2.285-2.285h-1.235v-1.021c-0.001-0.841-0.683-1.523-1.524-1.523h-26.491c-0.841 0.001-1.523 0.682-1.524 1.523v1.021h-1.227c-1.262 0.001-2.284 1.024-2.286 2.285v21.905c0.001 1.262 1.024 2.285 2.286 2.286h0zM31.621 24.751h-12.479v-17.705c2.885 0.377 5.121 2.845 5.121 5.831v0.687l-0.18-0.040c-0.049-0.011-0.106-0.018-0.164-0.018-0.363 0-0.666 0.253-0.743 0.593l-0.001 0.005-1.213 5.52c-0.011 0.049-0.018 0.105-0.018 0.163 0 0.362 0.253 0.666 0.593 0.743l0.005 0.001 2.622 0.578c0.135 0.029 0.273 0.043 0.411 0.043 0.922 0 1.707-0.631 1.907-1.535l0.702-3.192c0.029-0.125 0.045-0.269 0.045-0.417 0-0.929-0.648-1.706-1.517-1.904l-0.013-0.003-0.912-0.201v-1.023c0-3.827-2.917-6.987-6.644-7.371v-3.551h12.48l-0.002 22.796zM24.5 15.177l1.871 0.412c0.233 0.052 0.377 0.275 0.325 0.508l-0.702 3.191c-0.051 0.231-0.305 0.374-0.507 0.331l-1.874-0.413 0.887-4.029zM5.132 1.955h12.487v3.55c-3.731 0.381-6.651 3.542-6.651 7.372v1.022l-0.913 0.202c-0.517 0.115-0.947 0.425-1.218 0.846l-0.005 0.008c-0.193 0.295-0.307 0.657-0.307 1.045 0 0.15 0.017 0.297 0.050 0.437l-0.003-0.013 0.7 3.189c0.199 0.887 0.98 1.539 1.913 1.539 0.146 0 0.289-0.016 0.426-0.046l-0.013 0.002 2.611-0.577c0.344-0.078 0.597-0.381 0.597-0.743 0-0.058-0.006-0.114-0.019-0.168l0.001 0.005-1.213-5.519c-0.077-0.345-0.38-0.598-0.743-0.598-0.059 0-0.116 0.007-0.171 0.019l0.005-0.001-0.174 0.038v-0.685c0-2.988 2.24-5.458 5.128-5.832v17.707h-12.487v-22.797zM12.249 15.177l0.887 4.029-1.863 0.411c-0.027 0.006-0.058 0.009-0.090 0.009-0.205 0-0.377-0.143-0.421-0.334l-0.001-0.003-0.702-3.196c-0.007-0.028-0.011-0.060-0.011-0.094 0-0.084 0.025-0.161 0.067-0.227l-0.001 0.002c0.061-0.094 0.155-0.161 0.265-0.186l0.003-0.001 1.867-0.412zM1.62 5.262c0-0.42 0.341-0.762 0.762-0.762h1.227v20.251c0.001 0.841 0.683 1.523 1.524 1.524h26.491c0.841-0.001 1.523-0.682 1.524-1.523v-20.252h1.235c0.42 0 0.761 0.342 0.761 0.762v21.905c0 0.42-0.341 0.762-0.761 0.762h-12.755c-0.335 0-0.63 0.219-0.729 0.539-0.285 0.92-1.129 1.577-2.126 1.577-0.003 0-0.006 0-0.009-0h-0.772c-0.001 0-0.002 0-0.004 0-1.002 0-1.849-0.661-2.13-1.571l-0.004-0.016c-0.101-0.31-0.388-0.529-0.725-0.529h-12.747c-0.42 0-0.762-0.342-0.762-0.762v-21.905z"></path>
    </symbol>
    <symbol id="icon-left" viewBox="0 0 54 32">
        <path d="M52 14c1.105 0 2 0.895 2 2s-0.895 2-2 2v0-4zM0.586 17.414c-0.362-0.362-0.586-0.862-0.586-1.414s0.224-1.052 0.586-1.414l12.728-12.728c0.357-0.335 0.838-0.541 1.368-0.541 1.105 0 2 0.895 2 2 0 0.53-0.206 1.012-0.543 1.37l0.001-0.001-11.312 11.314 11.314 11.314c0.377 0.364 0.611 0.874 0.611 1.439 0 1.105-0.895 2-2 2-0.565 0-1.074-0.234-1.438-0.61l-0.001-0.001-12.728-12.728zM52 18h-50v-4h50v4z"></path>
    </symbol>
    <symbol id="icon-right" viewBox="0 0 54 32">
        <path d="M2 14c-1.105 0-2 0.895-2 2s0.895 2 2 2v0-4zM53.414 17.414c0.362-0.362 0.586-0.862 0.586-1.414s-0.224-1.052-0.586-1.414l-12.728-12.728c-0.364-0.377-0.874-0.611-1.439-0.611-1.105 0-2 0.895-2 2 0 0.565 0.234 1.074 0.61 1.438l0.001 0.001 11.314 11.314-11.314 11.314c-0.347 0.359-0.561 0.849-0.561 1.389 0 1.105 0.895 2 2 2 0.54 0 1.030-0.214 1.39-0.562l-0.001 0.001 12.728-12.728zM2 18h50v-4h-50v4z"></path>
    </symbol>
    <symbol id="icon-vk" viewBox="0 0 30 18">
        <path d="M25.8193 11.3062C26.8144 12.2778 27.8647 13.1919 28.7573 14.2614C29.1516 14.7367 29.5248 15.2272 29.8104 15.7788C30.215 16.5629 29.8485 17.4257 29.1455 17.4725L24.775 17.4705C23.6477 17.5641 22.7485 17.1103 21.9924 16.3396C21.3873 15.7232 20.8269 15.0673 20.2451 14.4301C20.0065 14.1697 19.7569 13.9247 19.4586 13.731C18.862 13.3437 18.3441 13.4623 18.0032 14.0845C17.6559 14.7175 17.5771 15.4182 17.543 16.1236C17.4962 17.1527 17.1851 17.4233 16.1514 17.4704C13.9421 17.5746 11.8454 17.2404 9.89753 16.1259C8.18026 15.1434 6.84866 13.7563 5.68956 12.186C3.43294 9.12844 1.70472 5.76856 0.151512 2.31457C-0.198116 1.53639 0.0575866 1.11867 0.91622 1.10385C2.34198 1.07613 3.76757 1.07813 5.19503 1.10186C5.77452 1.11035 6.15813 1.4427 6.3819 1.99014C7.15329 3.88688 8.09718 5.69144 9.28194 7.36412C9.59747 7.80943 9.91921 8.2548 10.3773 8.56822C10.8841 8.91527 11.27 8.80025 11.5084 8.23564C11.6597 7.87764 11.726 7.49203 11.7601 7.10865C11.8731 5.78953 11.888 4.47264 11.6899 3.15814C11.5682 2.33777 11.1061 1.80668 10.2875 1.65147C9.86982 1.57231 9.93198 1.41686 10.1342 1.17844C10.4855 0.767227 10.8159 0.51123 11.4746 0.51123H16.4139C17.1915 0.664687 17.3642 1.01402 17.4707 1.79643L17.4749 7.28297C17.4664 7.58584 17.6262 8.48473 18.1717 8.68518C18.6084 8.82791 18.8962 8.47857 19.1582 8.20172C20.3408 6.94658 21.1849 5.46322 21.9389 3.92725C22.2735 3.25184 22.5613 2.55047 22.8401 1.84963C23.0467 1.32961 23.3709 1.07373 23.9567 1.08504L28.7105 1.08926C28.8515 1.08926 28.9941 1.09131 29.1306 1.11469C29.9317 1.25121 30.1512 1.5958 29.9038 2.37803C29.514 3.60527 28.7555 4.62803 28.0138 5.65547C27.2211 6.7524 26.3732 7.81184 25.587 8.91527C24.8647 9.92309 24.922 10.431 25.8193 11.3062Z"/>
    </symbol>
    <symbol id="icon-tel" viewBox="0 0 24 24">
        <path d="M3.49259 0.00182175C3.10622 0.0201449 2.72684 0.18444 2.44862 0.490301L0.502737 2.62938C0.505458 2.62303 0.495118 2.62395 0.439985 2.70196C0.410595 2.74221 0.387756 2.78685 0.372316 2.83423C-0.419735 5.3572 0.11122 8.13254 1.40458 10.7722C2.698 13.4118 4.76108 15.9378 7.12967 18.0106C9.49825 20.0835 12.1707 21.7052 14.7188 22.5096C17.2669 23.314 19.7376 23.3033 21.5685 21.975C21.5884 21.9603 21.6071 21.944 21.6245 21.9264C21.6725 21.8784 21.6741 21.8723 21.6663 21.8796L21.6737 21.8703L23.6103 19.7405C24.1668 19.1287 24.1219 18.1671 23.51 17.6106L18.9157 13.4322C18.3039 12.8757 17.3424 12.9201 16.7859 13.5319L14.7071 15.8179C13.0197 15.3293 11.5771 14.501 10.1897 13.239C8.80206 11.9768 7.84072 10.6183 7.19488 8.9842L9.27302 6.69816C9.82952 6.08637 9.78524 5.12479 9.17335 4.56829L4.57904 0.389897C4.27316 0.111648 3.87958 -0.0165759 3.49317 0.00171102L3.49259 0.00182175ZM3.53627 0.939388C3.67859 0.933038 3.82339 0.982482 3.94168 1.09012L8.53599 5.26851C8.77267 5.48376 8.78875 5.82736 8.57351 6.06399L6.27631 8.58876C6.21857 8.65256 6.17934 8.73091 6.16286 8.81537C6.14638 8.89982 6.15328 8.9872 6.1828 9.06802C6.88 10.9706 8.00469 12.5315 9.55227 13.9392C11.0999 15.3468 12.7587 16.3194 14.7188 16.8337C14.8022 16.8556 14.8901 16.8542 14.9729 16.8297C15.0556 16.8052 15.1301 16.7585 15.1882 16.6946L17.4859 14.1692C17.7011 13.9327 18.0442 13.917 18.2808 14.1323L22.8757 18.3107C23.1124 18.526 23.1278 18.869 22.9126 19.1056L20.9919 21.2169C19.4894 22.2954 17.3728 22.3558 15.0024 21.6076C12.6227 20.8563 10.0393 19.3003 7.75282 17.2992C5.46632 15.2982 3.47653 12.8545 2.25351 10.3586C1.04309 7.8882 0.603968 5.39081 1.26977 3.18958L3.14617 1.1274C3.25378 1.00911 3.39389 0.94576 3.53621 0.939138L3.53627 0.939388Z"/>    
    </symbol>
</defs>
</svg>
