<?xml version="1.0" standalone="no"?>
<!DOCTYPE svg PUBLIC "-//W3C//DTD SVG 20010904//EN"
 "http://www.w3.org/TR/2001/REC-SVG-20010904/DTD/svg10.dtd">
<svg version="1.0" xmlns="http://www.w3.org/2000/svg"
 width="700.000000pt" height="700.000000pt" viewBox="0 0 700.000000 700.000000"
 preserveAspectRatio="xMidYMid meet">
<metadata>
Created by potrace 1.11, written by Peter Selinger 2001-2013
</metadata>
<g transform="translate(0.000000,700.000000) scale(0.100000,-0.100000)"
fill="#000000" stroke="none">
<path d="M3215 6989 c-744 -64 -1437 -353 -1995 -835 -678 -585 -1093 -1372
-1201 -2279 -18 -145 -18 -585 -1 -740 92 -828 448 -1559 1043 -2141 564 -551
1262 -881 2064 -974 50 -6 176 -13 280 -17 817 -26 1634 247 2280 763 143 114
372 338 494 484 451 537 717 1162 803 1885 16 139 16 595 0 730 -42 344 -117
648 -232 935 -396 991 -1248 1765 -2265 2059 -408 118 -863 164 -1270 130z
m658 -274 c603 -71 1168 -305 1647 -685 134 -105 402 -374 509 -509 382 -482
611 -1034 688 -1655 20 -162 22 -535 4 -696 -71 -636 -303 -1202 -699 -1700
-98 -122 -370 -394 -492 -492 -486 -386 -1042 -618 -1660 -694 -184 -23 -558
-23 -740 0 -729 90 -1366 393 -1884 896 -550 535 -882 1216 -967 1990 -16 147
-16 512 0 655 61 543 228 1015 515 1450 125 190 234 324 395 488 564 575 1273
903 2087 967 139 11 440 3 597 -15z"/>
<path d="M1276 3768 c-8 -31 -8 -2095 1 -2180 l6 -68 908 0 909 0 0 250 0 250
-590 0 -590 0 0 205 0 205 500 0 500 0 0 240 0 240 -500 0 -500 0 0 190 0 190
570 0 570 0 0 250 0 250 -889 0 -889 0 -6 -22z"/>
<path d="M3570 2655 l0 -1135 320 0 320 0 2 594 3 594 225 -271 c124 -150 344
-417 490 -594 l265 -322 273 0 272 -1 0 1135 0 1135 -320 0 -320 0 -2 -595 -3
-596 -493 596 -493 595 -270 0 -269 0 0 -1135z"/>
</g>
</svg>
